<svg width="178" height="42" viewBox="0 0 178 42" fill="none" xmlns="http://www.w3.org/2000/svg">
<rect width="176.667" height="41.6667" transform="translate(0.666626 0.166992)" fill="white"/>
<path d="M32.0146 29.3711L21.9585 19.75L32.0146 10.1289L32.041 10.1025C32.451 9.69247 32.73 9.16997 32.8428 8.6012C32.9556 8.03243 32.8971 7.44298 32.6747 6.90749C32.4523 6.37199 32.0759 5.91454 31.5934 5.59306C31.1108 5.27158 30.5437 5.10053 29.9639 5.10157H8.8701C8.29088 5.10198 7.72478 5.27408 7.24334 5.59612C6.76189 5.91816 6.38671 6.37568 6.1652 6.91087C5.94369 7.44607 5.8858 8.03491 5.99884 8.603C6.11187 9.17108 6.39077 9.69291 6.80028 10.1025L6.82665 10.1289L16.8755 19.75L6.82665 29.3711L6.80028 29.3975C6.39077 29.8071 6.11187 30.3289 5.99884 30.897C5.8858 31.4651 5.94369 32.0539 6.1652 32.5891C6.38671 33.1243 6.76189 33.5819 7.24334 33.9039C7.72478 34.2259 8.29088 34.398 8.8701 34.3984H29.9639C30.5432 34.3983 31.1095 34.2264 31.5912 33.9045C32.0728 33.5826 32.4483 33.1251 32.6699 32.5898C32.8916 32.0546 32.9496 31.4656 32.8367 30.8974C32.7237 30.3292 32.4447 29.8072 32.0351 29.3975L32.0146 29.3711ZM16.4507 14.4766H22.3833L19.417 17.3169L16.4507 14.4766ZM28.499 8.61719L26.0542 10.9609H12.7798L10.3349 8.61719H28.499ZM10.3349 30.8828L17.6592 23.8662V25.6094C17.6592 26.0756 17.8444 26.5227 18.174 26.8523C18.5037 27.182 18.9508 27.3672 19.417 27.3672C19.8832 27.3672 20.3303 27.182 20.6599 26.8523C20.9896 26.5227 21.1748 26.0756 21.1748 25.6094V23.8662L28.499 30.8828H10.3349Z" fill="#2464E3"/>
<path d="M52.7774 34.5345C51.743 34.5345 50.9535 34.2487 50.4091 33.677C49.8646 33.1053 49.5924 32.3023 49.5924 31.2678V10.6062H42.3649C41.521 10.6062 40.8677 10.3748 40.4049 9.91199C39.9421 9.44921 39.7108 8.80949 39.7108 7.99283C39.7108 7.14894 39.9421 6.50921 40.4049 6.07366C40.8677 5.61088 41.521 5.37949 42.3649 5.37949H63.1491C63.993 5.37949 64.6463 5.61088 65.1091 6.07366C65.5719 6.50921 65.8033 7.14894 65.8033 7.99283C65.8033 8.80949 65.5719 9.44921 65.1091 9.91199C64.6463 10.3748 63.993 10.6062 63.1491 10.6062H55.9216V31.2678C55.9216 32.3023 55.6494 33.1053 55.1049 33.677C54.5877 34.2487 53.8119 34.5345 52.7774 34.5345ZM73.5507 34.6162C71.1824 34.6162 69.1407 34.1942 67.4257 33.3503C65.738 32.4792 64.4313 31.2678 63.5057 29.7162C62.6074 28.1373 62.1582 26.2862 62.1582 24.1628C62.1582 22.0939 62.5938 20.2837 63.4649 18.732C64.336 17.1531 65.5474 15.9281 67.0991 15.057C68.678 14.1587 70.461 13.7095 72.4482 13.7095C73.891 13.7095 75.1977 13.9545 76.3682 14.4445C77.5388 14.9073 78.546 15.5878 79.3899 16.4862C80.2338 17.3573 80.8735 18.4325 81.3091 19.712C81.7446 20.9642 81.9624 22.3662 81.9624 23.9178C81.9624 24.435 81.7991 24.8298 81.4724 25.102C81.1457 25.347 80.6694 25.4695 80.0432 25.4695H67.2216V22.2845H77.5116L76.8582 22.8562C76.8582 21.74 76.6949 20.8145 76.3682 20.0795C76.0416 19.3173 75.5652 18.7456 74.9391 18.3645C74.3402 17.9834 73.5916 17.7928 72.6932 17.7928C71.686 17.7928 70.8285 18.0242 70.1207 18.487C69.413 18.9498 68.8685 19.6167 68.4874 20.4878C68.1063 21.3589 67.9157 22.407 67.9157 23.632V23.9587C67.9157 26.0275 68.3921 27.552 69.3449 28.532C70.3249 29.512 71.7677 30.002 73.6732 30.002C74.3266 30.002 75.0752 29.9203 75.9191 29.757C76.763 29.5937 77.5524 29.335 78.2874 28.9812C78.9135 28.6817 79.4716 28.5864 79.9616 28.6953C80.4516 28.777 80.8327 28.9948 81.1049 29.3487C81.3771 29.7025 81.5268 30.1109 81.5541 30.5737C81.6085 31.0364 81.5132 31.4992 81.2682 31.962C81.0232 32.3975 80.6149 32.765 80.0432 33.0645C79.1177 33.5817 78.0696 33.9628 76.8991 34.2078C75.7557 34.48 74.6396 34.6162 73.5507 34.6162ZM87.1004 34.5345C86.0932 34.5345 85.3173 34.2623 84.7729 33.7178C84.2557 33.1734 83.9971 32.3975 83.9971 31.3903V16.8945C83.9971 15.8873 84.2557 15.125 84.7729 14.6078C85.3173 14.0634 86.0659 13.7912 87.0187 13.7912C87.9987 13.7912 88.7473 14.0634 89.2646 14.6078C89.7818 15.125 90.0404 15.8873 90.0404 16.8945V19.5078L89.5912 17.8745C90.1357 16.6223 90.9796 15.615 92.1229 14.8528C93.2662 14.0906 94.6137 13.7095 96.1654 13.7095C97.7171 13.7095 99.0101 14.077 100.045 14.812C101.079 15.547 101.814 16.6767 102.25 18.2012H101.678C102.277 16.8128 103.189 15.7239 104.414 14.9345C105.666 14.1178 107.095 13.7095 108.701 13.7095C110.253 13.7095 111.519 14.0225 112.499 14.6487C113.506 15.2475 114.255 16.1731 114.745 17.4253C115.235 18.6503 115.48 20.2156 115.48 22.1212V31.3903C115.48 32.3975 115.207 33.1734 114.663 33.7178C114.146 34.2623 113.397 34.5345 112.417 34.5345C111.41 34.5345 110.634 34.2623 110.09 33.7178C109.572 33.1734 109.314 32.3975 109.314 31.3903V22.3253C109.314 20.9914 109.096 20.025 108.66 19.4262C108.252 18.8 107.544 18.487 106.537 18.487C105.366 18.487 104.455 18.8953 103.801 19.712C103.148 20.5287 102.821 21.6856 102.821 23.1828V31.3903C102.821 32.3975 102.549 33.1734 102.005 33.7178C101.487 34.2623 100.739 34.5345 99.7587 34.5345C98.7787 34.5345 98.0165 34.2623 97.4721 33.7178C96.9276 33.1734 96.6554 32.3975 96.6554 31.3903V22.3253C96.6554 20.9914 96.4376 20.025 96.0021 19.4262C95.5937 18.8 94.8859 18.487 93.8787 18.487C92.7082 18.487 91.7962 18.8953 91.1429 19.712C90.4896 20.5287 90.1629 21.6856 90.1629 23.1828V31.3903C90.1629 33.4864 89.1421 34.5345 87.1004 34.5345ZM121.673 41.8845C120.666 41.8845 119.89 41.6123 119.345 41.0678C118.828 40.5506 118.569 39.7748 118.569 38.7403V16.8945C118.569 15.8873 118.828 15.125 119.345 14.6078C119.89 14.0634 120.638 13.7912 121.591 13.7912C122.598 13.7912 123.361 14.0634 123.878 14.6078C124.395 15.125 124.654 15.8873 124.654 16.8945V19.6712L124.204 18.0787C124.613 16.772 125.429 15.7239 126.654 14.9345C127.907 14.1178 129.336 13.7095 130.942 13.7095C132.684 13.7095 134.209 14.1314 135.515 14.9753C136.849 15.8192 137.884 17.017 138.619 18.5687C139.354 20.1203 139.721 21.9714 139.721 24.122C139.721 26.2725 139.354 28.1373 138.619 29.7162C137.884 31.295 136.863 32.5064 135.556 33.3503C134.249 34.1942 132.711 34.6162 130.942 34.6162C129.363 34.6162 127.961 34.235 126.736 33.4728C125.511 32.6834 124.681 31.6625 124.245 30.4103H124.735V38.7403C124.735 39.7748 124.463 40.5506 123.919 41.0678C123.401 41.6123 122.653 41.8845 121.673 41.8845ZM129.104 30.002C129.976 30.002 130.738 29.7842 131.391 29.3487C132.072 28.9131 132.589 28.2734 132.943 27.4295C133.324 26.5584 133.514 25.4559 133.514 24.122C133.514 22.1348 133.106 20.6784 132.289 19.7528C131.473 18.8 130.411 18.3237 129.104 18.3237C128.233 18.3237 127.458 18.5278 126.777 18.9362C126.124 19.3445 125.606 19.9842 125.225 20.8553C124.844 21.6992 124.654 22.7881 124.654 24.122C124.654 26.1092 125.062 27.5928 125.879 28.5728C126.695 29.5256 127.771 30.002 129.104 30.002ZM145.044 34.5345C144.009 34.5345 143.22 34.2623 142.676 33.7178C142.131 33.1734 141.859 32.3975 141.859 31.3903V16.8945C141.859 15.8873 142.117 15.125 142.635 14.6078C143.179 14.0634 143.928 13.7912 144.881 13.7912C145.861 13.7912 146.609 14.0634 147.126 14.6078C147.644 15.125 147.902 15.8873 147.902 16.8945V19.0178H147.494C147.821 17.3845 148.542 16.1187 149.658 15.2203C150.774 14.322 152.217 13.8184 153.986 13.7095C154.667 13.655 155.184 13.832 155.538 14.2403C155.919 14.6214 156.123 15.2612 156.151 16.1595C156.205 17.0034 156.028 17.6703 155.62 18.1603C155.239 18.6503 154.585 18.9498 153.66 19.0587L152.721 19.1403C151.169 19.2764 150.012 19.7256 149.25 20.4878C148.515 21.25 148.147 22.3525 148.147 23.7953V31.3903C148.147 32.3975 147.875 33.1734 147.331 33.7178C146.813 34.2623 146.051 34.5345 145.044 34.5345ZM163.632 34.6162C162.162 34.6162 160.842 34.3303 159.671 33.7587C158.501 33.187 157.589 32.4112 156.936 31.4312C156.282 30.4512 155.956 29.3487 155.956 28.1237C155.956 26.6537 156.337 25.4967 157.099 24.6528C157.861 23.7817 159.1 23.1692 160.815 22.8153C162.53 22.4342 164.803 22.2437 167.634 22.2437H169.798V25.4287H167.675C166.286 25.4287 165.157 25.5103 164.286 25.6737C163.442 25.8098 162.829 26.0548 162.448 26.4087C162.094 26.7625 161.917 27.2525 161.917 27.8787C161.917 28.6409 162.176 29.267 162.693 29.757C163.238 30.247 164.013 30.492 165.021 30.492C165.81 30.492 166.504 30.315 167.103 29.9612C167.729 29.58 168.219 29.0764 168.573 28.4503C168.927 27.797 169.104 27.062 169.104 26.2453V21.5495C169.104 20.3517 168.832 19.5078 168.287 19.0178C167.743 18.5006 166.817 18.242 165.511 18.242C164.776 18.242 163.973 18.3373 163.101 18.5278C162.258 18.6912 161.318 18.977 160.284 19.3853C159.685 19.6575 159.154 19.7256 158.691 19.5895C158.229 19.4262 157.875 19.1539 157.63 18.7728C157.385 18.3645 157.262 17.9289 157.262 17.4662C157.262 16.9762 157.398 16.5134 157.671 16.0778C157.943 15.615 158.392 15.2748 159.018 15.057C160.298 14.5398 161.495 14.1859 162.611 13.9953C163.755 13.8048 164.803 13.7095 165.756 13.7095C167.852 13.7095 169.567 14.0225 170.901 14.6487C172.262 15.2475 173.283 16.1867 173.963 17.4662C174.644 18.7184 174.984 20.3381 174.984 22.3253V31.3903C174.984 32.3975 174.739 33.1734 174.249 33.7178C173.759 34.2623 173.051 34.5345 172.126 34.5345C171.2 34.5345 170.479 34.2623 169.961 33.7178C169.471 33.1734 169.226 32.3975 169.226 31.3903V29.8795L169.512 30.1245C169.349 31.05 168.995 31.8531 168.451 32.5337C167.933 33.187 167.266 33.7042 166.45 34.0853C165.633 34.4392 164.694 34.6162 163.632 34.6162Z" fill="#2464E3"/>
</svg>
